<?xml version="1.0" encoding="UTF-8"?>
<svg width="109px" height="38px" viewBox="0 0 109 38" version="1.1" xmlns="http://www.w3.org/2000/svg" xmlns:xlink="http://www.w3.org/1999/xlink">
    <!-- Generator: Sketch 41 (35326) - http://www.bohemiancoding.com/sketch -->
    <title>Tripstr Copy</title>
    <desc>Created with Sketch.</desc>
    <defs></defs>
    <g id="Comparador" stroke="none" stroke-width="1" fill="none" fill-rule="evenodd">
        <g id="Artboard-Copy" transform="translate(-156.000000, -63.000000)" fill="#313131">
            <g id="Group" transform="translate(156.000000, 63.000000)">
                <path d="M11.96,16 L11.96,5.52 L18.68,5.52 L19.28,1.92 L0.4,1.92 L0.4,5.52 L7.24,5.52 L7.24,16 L11.96,16 Z M11.96,20 L11.96,29 L7.24,29 L7.24,20 L11.96,20 Z M23.8333689,16 C24.068209,15.4477486 24.36375,14.9744196 24.72,14.58 C25.0933352,14.1666646 25.5199976,13.8400012 26,13.6 C26.4800024,13.3599988 26.9599976,13.24 27.44,13.24 C28.10667,13.24 28.606665,13.3133326 28.94,13.46 C29.229142,13.5872225 29.3828459,13.6592664 29.4011148,13.6761331 L29.4011148,13.676133 L30.68,9.24 C30.7066668,9.24 30.453336,9.1666674 29.92,9.02 C29.386664,8.8733326 28.8133364,8.8 28.2,8.8 C26.9199936,8.8 25.7733384,9.1399966 24.76,9.82 C23.7466616,10.5000034 22.973336,11.6133256 22.44,13.16 C22.306666,12.4666632 22.1333344,11.8666692 21.92,11.36 C21.7066656,10.8533308 21.4933344,10.4133352 21.28,10.04 C21.013332,9.6133312 20.7600012,9.2533348 20.52,8.96 L16.92,10.4 C17.2666684,10.8800024 17.5866652,11.5066628 17.88,12.28 C18.1200012,12.94667 18.3466656,13.8199946 18.56,14.9 C18.6273149,15.2407816 18.6840094,15.6074478 18.7300838,16 L23.8333644,16 Z M23.44,20 L23.44,29 L18.88,29 L18.88,20 L23.44,20 Z M33.12,20 L33.12,24.64 C33.12,25.97334 33.4933296,27.0599958 34.24,27.9 C34.9866704,28.7400042 36.0666596,29.16 37.48,29.16 C37.9333356,29.16 38.3399982,29.1333336 38.7,29.08 C39.0600018,29.0266664 39.3599988,28.9600004 39.6,28.88 C39.8933348,28.7999996 40.1333324,28.7066672 40.32,28.6 L39.84,25.72 C39.706666,25.7466668 39.5866672,25.76 39.48,25.76 C39.3733328,25.7866668 39.2600006,25.8 39.14,25.8 L38.8,25.8 C38.4266648,25.8 38.1466676,25.6933344 37.96,25.48 C37.7733324,25.2666656 37.68,24.8533364 37.68,24.24 L37.68,20 L33.12,20 Z M33.12,16 L33.12,9.08 L37.68,9.08 L37.68,16 L33.12,16 Z M43.88,20 L43.88,37.84 L48.44,37.04 L48.44,29 C48.973336,29.0533336 49.4999974,29.1066664 50.02,29.16 C50.5400026,29.2133336 51.0533308,29.24 51.56,29.24 C53.0000072,29.24 54.3066608,28.973336 55.48,28.44 C56.6533392,27.906664 57.6599958,27.173338 58.5,26.24 C59.3400042,25.306662 59.9866644,24.1933398 60.44,22.9 C60.7591454,21.9894969 60.965951,21.0228351 61.060419,20 L56.216902,20 C56.1826643,20.664729 56.1103639,21.2913926 56,21.88 C55.8399992,22.7333376 55.560002,23.4666636 55.16,24.08 C54.759998,24.6933364 54.22667,25.1733316 53.56,25.52 C52.89333,25.8666684 52.0533384,26.04 51.04,26.04 C50.639998,26.04 50.173336,25.9866672 49.64,25.88 C49.106664,25.7733328 48.706668,25.6800004 48.44,25.6 L48.44,20 L43.88,20 Z M43.7300838,16 C43.6840094,15.6074478 43.6273149,15.2407816 43.56,14.9 C43.3466656,13.8199946 43.1200012,12.94667 42.88,12.28 C42.5866652,11.5066628 42.2666684,10.8800024 41.92,10.4 L45.52,8.96 C45.8400016,9.2800016 46.133332,9.6799976 46.4,10.16 C46.6133344,10.560002 46.8266656,11.0466638 47.04,11.62 C47.2533344,12.1933362 47.4133328,12.8666628 47.52,13.64 C47.9733356,12.039992 48.6933284,10.8266708 49.68,10 C50.6666716,9.1733292 52.0399912,8.76 53.8,8.76 C55.0533396,8.76 56.1399954,8.993331 57.06,9.46 C57.9800046,9.926669 58.739997,10.593329 59.34,11.46 C59.940003,12.326671 60.3866652,13.3733272 60.68,14.6 C60.7873263,15.0488192 60.8750179,15.5154852 60.943075,16 L56.1279832,16 C56.0599511,15.3073215 55.9306242,14.6806594 55.74,14.12 C55.5133322,13.45333 55.1866688,12.9266686 54.76,12.54 C54.3333312,12.1533314 53.7600036,11.96 53.04,11.96 C52.37333,11.96 51.7600028,12.1866644 51.2,12.64 C50.6399972,13.0933356 50.1533354,13.6933296 49.74,14.44 C49.473603,14.9212333 49.2459777,15.441231 49.0571215,16 L43.7300838,16 Z M70.004983,16 C69.2816589,15.3489364 68.92,14.5889386 68.92,13.72 C68.92,13.1333304 69.1399978,12.6933348 69.58,12.4 C70.0200022,12.1066652 70.5466636,11.96 71.16,11.96 C71.693336,11.96 72.2333306,12.0333326 72.78,12.18 C73.3266694,12.3266674 73.8266644,12.4799992 74.28,12.64 C74.813336,12.8266676 75.346664,13.0399988 75.88,13.28 L77.24,10.16 C76.6533304,9.893332 76.0133368,9.6400012 75.32,9.4 C74.7333304,9.1866656 74.0666704,9.0000008 73.32,8.84 C72.5733296,8.6799992 71.8133372,8.6 71.04,8.6 C70.0799952,8.6 69.1866708,8.7466652 68.36,9.04 C67.5333292,9.3333348 66.820003,9.7399974 66.22,10.26 C65.619997,10.7800026 65.1466684,11.3799966 64.8,12.06 C64.4533316,12.7400034 64.28,13.4533296 64.28,14.2 C64.28,14.850081 64.356255,15.4500801 64.508766,16 L70.004983,16 Z M76.5603942,20 C76.8436616,20.3699573 77.0701957,20.776622 77.24,21.22 C77.4800012,21.8466698 77.6,22.5866624 77.6,23.44 C77.6,24.1866704 77.4466682,24.9199964 77.14,25.64 C76.8333318,26.3600036 76.380003,26.9999972 75.78,27.56 C75.179997,28.1200028 74.446671,28.566665 73.58,28.9 C72.713329,29.233335 71.7333388,29.4 70.64,29.4 C69.7599956,29.4 68.8933376,29.300001 68.04,29.1 C67.1866624,28.899999 66.4200034,28.6800012 65.74,28.44 C65.0599966,28.1999988 64.520002,27.9733344 64.12,27.76 L63.52,27.48 L65,24.12 L65.52,24.4 C65.8666684,24.6133344 66.306664,24.8399988 66.84,25.08 C67.373336,25.3200012 67.9466636,25.539999 68.56,25.74 C69.1733364,25.940001 69.7333308,26.04 70.24,26.04 C71.173338,26.04 71.8666644,25.8533352 72.32,25.48 C72.7733356,25.1066648 73,24.6133364 73,24 C73,23.3066632 72.7533358,22.6733362 72.26,22.1 C71.7666642,21.5266638 71.0266716,21.0533352 70.04,20.68 C69.4607013,20.4618226 68.9275693,20.2351561 68.440603,20 L76.5603942,20 Z M87.6,16 L87.6,12.32 L91.96,12.32 L92.52,9.08 L87.6,9.08 L87.6,3.56 L83.84,4.4 L83.04,9.08 L79.44,9.08 L79.44,12.32 L83.04,12.32 L83.04,16 L87.6,16 Z M87.6,20 L87.6,24.16 C87.6,24.8533368 87.7866648,25.299999 88.16,25.5 C88.5333352,25.700001 88.9466644,25.8 89.4,25.8 C89.7733352,25.8 90.1466648,25.7733336 90.52,25.72 C90.8933352,25.6666664 91.2266652,25.6000004 91.52,25.52 C91.8666684,25.4399996 92.1999984,25.3466672 92.52,25.24 L93.28,28.24 L92.92,28.36 C92.6799988,28.4666672 92.326669,28.5799994 91.86,28.7 C91.393331,28.8200006 90.8466698,28.9266662 90.22,29.02 C89.5933302,29.1133338 88.9066704,29.16 88.16,29.16 C87.4133296,29.16 86.7266698,29.0800008 86.1,28.92 C85.4733302,28.7599992 84.9333356,28.5000018 84.48,28.14 C84.0266644,27.7799982 83.6733346,27.3200028 83.42,26.76 C83.1666654,26.1999972 83.04,25.5066708 83.04,24.68 L83.04,20 L87.6,20 Z M101.393369,16 C101.628209,15.4477486 101.92375,14.9744196 102.28,14.58 C102.653335,14.1666646 103.079998,13.8400012 103.56,13.6 C104.040002,13.3599988 104.519998,13.24 105,13.24 C105.66667,13.24 106.166665,13.3133326 106.5,13.46 C106.789142,13.5872225 106.942846,13.6592664 106.961115,13.6761331 L106.961115,13.676133 L108.24,9.24 C108.266667,9.24 108.013336,9.1666674 107.48,9.02 C106.946664,8.8733326 106.373336,8.8 105.76,8.8 C104.479994,8.8 103.333338,9.1399966 102.32,9.82 C101.306662,10.5000034 100.533336,11.6133256 100,13.16 C99.866666,12.4666632 99.6933344,11.8666692 99.48,11.36 C99.2666656,10.8533308 99.0533344,10.4133352 98.84,10.04 C98.573332,9.6133312 98.3200012,9.2533348 98.08,8.96 L94.48,10.4 C94.8266684,10.8800024 95.1466652,11.5066628 95.44,12.28 C95.6800012,12.94667 95.9066656,13.8199946 96.12,14.9 C96.1873149,15.2407816 96.2440094,15.6074478 96.2900838,16 L101.39337,16 Z M101,20 L101,29 L96.44,29 L96.44,20 L101,20 Z M37.44,0.96 C37.8933356,1.4666692 38.12,2.119996 38.12,2.92 C38.12,3.720004 37.886669,4.386664 37.42,4.92 C36.953331,5.453336 36.2666712,5.72 35.36,5.72 C34.5066624,5.72 33.846669,5.4600026 33.38,4.94 C32.913331,4.4199974 32.68,3.7866704 32.68,3.04 C32.68,2.2133292 32.913331,1.533336 33.38,1 C33.846669,0.466664 34.546662,0.2 35.48,0.2 C36.3333376,0.2 36.9866644,0.4533308 37.44,0.96 Z" id="Tripstr-Copy"></path>
            </g>
        </g>
    </g>
</svg>